<svg xmlns="http://www.w3.org/2000/svg" viewBox="0 0 752.4 1008.99"><defs><style>.cls-1,.cls-5{fill:#f37435;}.cls-1,.cls-2,.cls-3{fill-rule:evenodd;}.cls-2{fill:#f58634;}.cls-3{fill:#fefefe;}.cls-4{fill:none;stroke:#201e1e;stroke-miterlimit:22.93;stroke-width:0.81px;}.cls-6{fill:#201e1e;}</style></defs><g id="Camada_2" data-name="Camada 2"><g id="Camada_1-2" data-name="Camada 1"><path class="cls-1" d="M298.31,87c167.86-43.91,339.53,56.58,383.44,224.43S625.17,651,457.32,694.86,117.78,638.29,73.88,470.43,130.45,130.9,298.31,87M522.42,943.76s272.85-345,224.16-628.84c-105.17-402-468.3-304.51-468.3-304.51S-86.11,103.17,19.06,505.23C115.6,776.58,522.42,943.76,522.42,943.76Z"/><path class="cls-2" d="M535.62,994.51c48.48-12.68,86.5-27.88,84.92-33.94s-42.18-.69-90.66,12-86.5,27.88-84.91,33.94,42.17.69,90.65-12"/><path class="cls-3" d="M302.51,86.56C470,42.76,641.18,143,685,310.42S628.56,649.09,461.12,692.89,122.45,636.47,78.65,469,135.07,130.35,302.51,86.56Z"/><path class="cls-4" d="M302.51,86.56C470,42.76,641.19,143,685,310.42S628.56,649.09,461.12,692.89,122.45,636.47,78.65,469,135.08,130.35,302.51,86.56Z"/><path class="cls-5" d="M513,151.31l23,34-96.13,63.86,90.35,136.65L626.34,322l22.51,33.89-137,91L376,242.34Zm57.45,139.12-45.59,30.28-44.21-25.37,64.57-42.89Z"/><path class="cls-6" d="M313,280.8a119.6,119.6,0,0,1,45.09-18.37,122.74,122.74,0,0,1,90.68,18.3,122.78,122.78,0,0,1,52.79,79.48,122.71,122.71,0,0,1-18.29,90.69,119.44,119.44,0,0,1-34.41,34.43L431.89,496.6l-43-22.85,36.23-24.06a70.18,70.18,0,0,0,20.51-20.79A71.28,71.28,0,0,0,456,402a79.15,79.15,0,0,0-.93-29.92,86.69,86.69,0,0,0-12.83-29.79,85.49,85.49,0,0,0-22.3-23.1,79.14,79.14,0,0,0-27.21-12.45,73.55,73.55,0,0,0-28.9-1,68.07,68.07,0,0,0-27.21,10.71L289.9,347.5,402.08,516.39l-40.91,27.17L225.32,339Z"/><path class="cls-5" d="M162.63,376.45A117.55,117.55,0,0,1,208.48,358a122.07,122.07,0,0,1,91,20,129.19,129.19,0,0,1,34.82,35.62A132.22,132.22,0,0,1,352,452.37a124.09,124.09,0,0,1,4.22,40.57,121.79,121.79,0,0,1-9.17,39.15A115.12,115.12,0,0,1,325,566.34l-43.55-21.18a63,63,0,0,0,18-21.43,73.6,73.6,0,0,0,7.69-26.16,80.36,80.36,0,0,0-2.39-28.31,91.18,91.18,0,0,0-12.5-27.7,89.64,89.64,0,0,0-21.81-23,81.5,81.5,0,0,0-26.58-13.09,69.84,69.84,0,0,0-28.36-1.8,69.56,69.56,0,0,0-48.22,32,71.54,71.54,0,0,0-9.47,26.93,79.56,79.56,0,0,0,1.6,29.68,92.23,92.23,0,0,0,34.55,52,79.41,79.41,0,0,0,26.73,13,71.69,71.69,0,0,0,28.5,1.71,66,66,0,0,0,27.6-10.76l25.23,38a120,120,0,0,1-93.14,17.65,125.4,125.4,0,0,1-43.69-19.2A133.37,133.37,0,0,1,111,503.18a122,122,0,0,1,16.84-91.62,117.66,117.66,0,0,1,34.79-35.11"/></g></g></svg>